<?xml version="1.0" encoding="utf-8"?>
<!-- Generator: Adobe Illustrator 19.0.0, SVG Export Plug-In . SVG Version: 6.00 Build 0)  -->
<svg version="1.1" id="Layer_1" xmlns="http://www.w3.org/2000/svg" xmlns:xlink="http://www.w3.org/1999/xlink" x="0px" y="0px"
	 viewBox="-164 281.7 93 32.6" enable-background="new -164 281.7 93 32.6" xml:space="preserve">
<g id="XMLID_2_">
	<g id="XMLID_3_">
		<g id="XMLID_30_">
			<path fill-rule="evenodd" clip-rule="evenodd" fill="#FFFFFF" d="M-84.2,295.6c0-0.1,0-0.1-0.1-0.1h-0.4c-0.1,0-0.1,0-0.1,0.1
				v4.6c0,0.1,0,0.1,0.1,0.1h2.4c0.1,0,0.1,0,0.1-0.1v-0.3c0-0.1,0-0.1-0.1-0.1h-1.8V295.6z M-87,298.5h-1.2l0.4-1.3
				c0.1-0.3,0.2-1,0.2-1c0,0.1,0.1,0.8,0.2,1L-87,298.5z M-87.8,295.5c-0.1,0-0.1,0-0.2,0.1l-1.4,4.6c0,0.1,0,0.1,0.1,0.1h0.4
				c0.1,0,0.1-0.1,0.2-0.1l0.3-1.1h1.5l0.3,1.1c0,0.1,0.1,0.1,0.2,0.1h0.4c0.1,0,0.1-0.1,0.1-0.1l-1.4-4.6c0-0.1-0.1-0.1-0.2-0.1
				H-87.8z M-92.4,295.5c-0.1,0-0.1,0-0.1,0.1v0.3c0,0.1,0,0.1,0.1,0.1h1.1v4.1c0,0.1,0,0.1,0.1,0.1h0.4c0.1,0,0.1,0,0.1-0.1v-4.1
				h1.1c0.1,0,0.1,0,0.1-0.1v-0.3c0-0.1,0-0.1-0.1-0.1H-92.4z M-93.3,295.6c0-0.1,0-0.1-0.1-0.1h-0.4c-0.1,0-0.1,0-0.1,0.1v4.6
				c0,0.1,0,0.1,0.1,0.1h0.4c0.1,0,0.1,0,0.1-0.1V295.6z M-96.8,297.9c-0.1,0-0.1,0-0.1,0.1v0.3c0,0.1,0,0.1,0.1,0.1h0.8v0.7
				c0,0.4-0.3,0.6-0.9,0.6c-0.6,0-0.9-0.2-0.9-0.6v-2.5c0-0.4,0.2-0.6,0.9-0.6s0.9,0.2,0.9,0.6v0.2c0,0.1,0,0.1,0.1,0.1h0.4
				c0.1,0,0.1,0,0.1-0.1v-0.3c0-0.6-0.3-1.1-1.6-1.1c-1.2,0-1.6,0.5-1.6,1.1v2.8c0,0.6,0.3,1.1,1.6,1.1c1.2,0,1.6-0.5,1.6-1.1V298
				c0-0.1,0-0.1-0.1-0.1H-96.8z M-99.7,295.6c0-0.1,0-0.1-0.1-0.1h-0.4c-0.1,0-0.1,0-0.1,0.1v4.6c0,0.1,0,0.1,0.1,0.1h0.4
				c0.1,0,0.1,0,0.1-0.1V295.6z M-103.3,296.1c0.6,0,0.9,0.2,0.9,0.6v2.4c0,0.4-0.3,0.6-0.9,0.6h-0.9v-3.7H-103.3z M-103.3,300.3
				c1.2,0,1.6-0.5,1.6-1.1v-2.7c0-0.6-0.4-1.1-1.6-1.1h-1.5c-0.1,0-0.1,0-0.1,0.1v4.6c0,0.1,0,0.1,0.1,0.1H-103.3z"/>
		</g>
		<g id="XMLID_27_">
			<path fill-rule="evenodd" clip-rule="evenodd" fill="#FFFFFF" d="M-116,297.9c0-4-2.9-6.9-7-6.9h-0.1c-2.2-0.1-4-1.8-4-4
				c0-2.2,1.8-4,4-4c2.2,0,4,1.8,4,4c0,4,2.9,6.9,6.9,6.9c2.2,0,4,1.8,4,4c0,2.2-1.8,4-4,4c-4.1,0-6.9,2.8-6.9,6.9c0,2.2-1.8,4-4,4
				c-2.2,0-4-1.8-4-4c0-2.2,1.8-4,4-4h0.1C-119,304.8-116,302-116,297.9z"/>
		</g>
		<g id="XMLID_4_">
			<path fill-rule="evenodd" clip-rule="evenodd" fill="#FFFFFF" d="M-128.6,297.9c0-3,2.4-5.4,5.4-5.4c3,0,5.4,2.4,5.4,5.4
				c0,3-2.4,5.4-5.4,5.4C-126.2,303.3-128.6,300.9-128.6,297.9z M-126.6,297.9c0,1.9,1.5,3.4,3.4,3.4c1.9,0,3.4-1.5,3.4-3.4
				s-1.5-3.4-3.4-3.4C-125.1,294.5-126.6,296-126.6,297.9z M-148.2,291.6h-2v-2h2V291.6z M-131,291.6h-2v-2h2V291.6z M-148.2,303.1
				h-2v-10.4h2V303.1z M-131,303.1h-2v-10.4h2V303.1z M-160.2,303.1h-2v-10.4h2V303.1z M-145.2,301.2h6.6c0.6,0,1.2-0.5,1.2-1.1
				c0-0.6-0.5-1.1-1.2-1.1h-3.8c-1.8,0-3.2-1.4-3.2-3.1c0-1.7,1.4-3.1,3.2-3.1h5.9v2h-5.9c-0.6,0-1.2,0.5-1.2,1.1
				c0,0.7,0.4,1.1,0.9,1.1h4.1c1.8,0,3.2,1.4,3.2,3.1s-1.4,3.1-3.2,3.1h-6.6V301.2z M-157.1,297.9l5.3,5.2h-2.9l-5.1-5.2l5.1-5.2
				h2.9L-157.1,297.9z"/>
		</g>
	</g>
</g>
</svg>
